# xmcd
#
# Track frame offsets:
#	150
#	21658
#	39500
#	53402
#	72811
#	89368
#	108304
#	124278
#	139818
#	155340
#	169820
#
# Disc length: 2453 seconds
#
# Revision: 1
# Processed by: cddbd v1.5.1PL2 Copyright (c) Steve Scherf et al.
# Submitted via: audiograbber 1.83.01
#
DISCID=9209930b
DTITLE=JASNA GOSPIC - Kud puklo da puklo
DYEAR=2004
DGENRE=Pop
TTITLE0=Heroj mog detinjstva
TTITLE1=Ziva sam ja
TTITLE2=Zivot je lijep
TTITLE3=Kud puklo  da puklo
TTITLE4=Volim da volim
TTITLE5=A jos mi ne das mira
TTITLE6=Ljubi me
TTITLE7=Potrazi me
TTITLE8=U redu je, ne brini
TTITLE9=Ljubav je ljubav
TTITLE10=Hajde pjesmo
EXTD=
EXTT0=
EXTT1=
EXTT2=
EXTT3=
EXTT4=
EXTT5=
EXTT6=
EXTT7=
EXTT8=
EXTT9=
EXTT10=
PLAYORDER=
